<svg width="643" height="301" viewBox="0 0 643 301" fill="none" xmlns="http://www.w3.org/2000/svg">
<path d="M321.5 230.545C305.874 230.545 290.599 225.911 277.606 217.23C264.614 208.549 254.488 196.209 248.508 181.772C242.528 167.336 240.964 151.45 244.012 136.124C247.061 120.798 254.585 106.72 265.634 95.6707C276.683 84.6212 290.761 77.0965 306.086 74.0479C321.412 70.9994 337.297 72.564 351.734 78.5439C366.17 84.5238 378.509 94.6505 387.19 107.643C395.871 120.636 400.505 135.911 400.505 151.538C400.482 172.484 392.15 192.567 377.339 207.378C362.528 222.19 342.446 230.522 321.5 230.545Z" stroke="#FBB03B" stroke-width="6" stroke-miterlimit="10"/>
<path d="M321.5 210.193C353.894 210.193 380.154 183.932 380.154 151.537C380.154 119.143 353.894 92.8818 321.5 92.8818C289.106 92.8818 262.846 119.143 262.846 151.537C262.846 183.932 289.106 210.193 321.5 210.193Z" stroke="#FBB03B" stroke-width="6" stroke-miterlimit="10"/>
<path d="M321.5 92.8818V16.2378" stroke="#FBB03B" stroke-width="6" stroke-miterlimit="10"/>
<path d="M380.154 151.538H447.965" stroke="#FBB03B" stroke-width="5.30869" stroke-miterlimit="10"/>
<path d="M321.5 28.2849C328.153 28.2849 333.546 22.8914 333.546 16.2381C333.546 9.58492 328.153 4.19141 321.5 4.19141C314.847 4.19141 309.454 9.58492 309.454 16.2381C309.454 22.8914 314.847 28.2849 321.5 28.2849Z" fill="#FBB03B"/>
<path d="M321.5 298.884C328.153 298.884 333.546 293.49 333.546 286.837C333.546 280.184 328.153 274.79 321.5 274.79C314.847 274.79 309.454 280.184 309.454 286.837C309.454 293.49 314.847 298.884 321.5 298.884Z" fill="#FBB03B"/>
<path d="M424.288 196.453C428.818 196.453 432.49 192.781 432.49 188.251C432.49 183.72 428.818 180.048 424.288 180.048C419.758 180.048 416.085 183.72 416.085 188.251C416.085 192.781 419.758 196.453 424.288 196.453Z" fill="#FBB03B"/>
<path d="M424.288 123.027C428.818 123.027 432.49 119.355 432.49 114.825C432.49 110.295 428.818 106.622 424.288 106.622C419.758 106.622 416.085 110.295 416.085 114.825C416.085 119.355 419.758 123.027 424.288 123.027Z" fill="#FBB03B"/>
<path d="M218.712 196.453C223.243 196.453 226.915 192.781 226.915 188.251C226.915 183.72 223.243 180.048 218.712 180.048C214.182 180.048 210.51 183.72 210.51 188.251C210.51 192.781 214.182 196.453 218.712 196.453Z" fill="#FBB03B"/>
<path d="M218.712 123.027C223.243 123.027 226.915 119.355 226.915 114.825C226.915 110.295 223.243 106.622 218.712 106.622C214.182 106.622 210.51 110.295 210.51 114.825C210.51 119.355 214.182 123.027 218.712 123.027Z" fill="#FBB03B"/>
<path d="M385.992 276.862C392.645 276.862 398.038 271.469 398.038 264.815C398.038 258.162 392.645 252.769 385.992 252.769C379.339 252.769 373.946 258.162 373.946 264.815C373.946 271.469 379.339 276.862 385.992 276.862Z" fill="#FBB03B"/>
<path d="M257.008 276.862C263.661 276.862 269.054 271.469 269.054 264.815C269.054 258.162 263.661 252.769 257.008 252.769C250.355 252.769 244.962 258.162 244.962 264.815C244.962 271.469 250.355 276.862 257.008 276.862Z" fill="#FBB03B"/>
<path d="M385.992 50.3064C392.645 50.3064 398.038 44.9129 398.038 38.2596C398.038 31.6064 392.645 26.2129 385.992 26.2129C379.339 26.2129 373.946 31.6064 373.946 38.2596C373.946 44.9129 379.339 50.3064 385.992 50.3064Z" fill="#FBB03B"/>
<path d="M257.008 50.3064C263.661 50.3064 269.054 44.9129 269.054 38.2596C269.054 31.6064 263.661 26.2129 257.008 26.2129C250.355 26.2129 244.962 31.6064 244.962 38.2596C244.962 44.9129 250.355 50.3064 257.008 50.3064Z" fill="#FBB03B"/>
<path d="M359.411 14.163C363.322 14.163 366.492 10.9925 366.492 7.08149C366.492 3.17049 363.322 0 359.411 0C355.5 0 352.329 3.17049 352.329 7.08149C352.329 10.9925 355.5 14.163 359.411 14.163Z" fill="#FBB03B"/>
<path d="M283.589 14.163C287.5 14.163 290.671 10.9925 290.671 7.08149C290.671 3.17049 287.5 0 283.589 0C279.679 0 276.508 3.17049 276.508 7.08149C276.508 10.9925 279.679 14.163 283.589 14.163Z" fill="#FBB03B"/>
<path d="M359.411 301C363.322 301 366.492 297.829 366.492 293.918C366.492 290.007 363.322 286.837 359.411 286.837C355.5 286.837 352.329 290.007 352.329 293.918C352.329 297.829 355.5 301 359.411 301Z" fill="#FBB03B"/>
<path d="M283.589 301C287.5 301 290.671 297.829 290.671 293.918C290.671 290.007 287.5 286.837 283.589 286.837C279.679 286.837 276.508 290.007 276.508 293.918C276.508 297.829 279.679 301 283.589 301Z" fill="#FBB03B"/>
<path d="M447.965 171.179C458.812 171.179 467.606 162.385 467.606 151.538C467.606 140.69 458.812 131.896 447.965 131.896C437.118 131.896 428.324 140.69 428.324 151.538C428.324 162.385 437.118 171.179 447.965 171.179Z" stroke="#FBB03B" stroke-width="4" stroke-miterlimit="10"/>
<path d="M447.965 162.798C454.184 162.798 459.225 157.756 459.225 151.537C459.225 145.318 454.184 140.277 447.965 140.277C441.746 140.277 436.705 145.318 436.705 151.537C436.705 157.756 441.746 162.798 447.965 162.798Z" fill="#FBB03B"/>
<path d="M262.846 151.538H195.035" stroke="#FBB03B" stroke-width="5.30869" stroke-miterlimit="10"/>
<path d="M195.035 171.179C205.882 171.179 214.675 162.385 214.675 151.538C214.675 140.69 205.882 131.896 195.035 131.896C184.188 131.896 175.394 140.69 175.394 151.538C175.394 162.385 184.188 171.179 195.035 171.179Z" stroke="#FBB03B" stroke-width="4" stroke-miterlimit="10"/>
<path d="M195.035 162.798C201.254 162.798 206.295 157.756 206.295 151.537C206.295 145.318 201.254 140.277 195.035 140.277C188.816 140.277 183.775 145.318 183.775 151.537C183.775 157.756 188.816 162.798 195.035 162.798Z" fill="#FBB03B"/>
<path d="M321.5 286.837V210.193" stroke="#FBB03B" stroke-width="6" stroke-miterlimit="10"/>
<path d="M435.033 255.238C445.497 255.238 453.981 246.754 453.981 236.29C453.981 225.825 445.497 217.341 435.033 217.341C424.568 217.341 416.085 225.825 416.085 236.29C416.085 246.754 424.568 255.238 435.033 255.238Z" stroke="#FBB03B" stroke-width="3.85888" stroke-miterlimit="10"/>
<path d="M435.033 244.404C439.514 244.404 443.147 240.771 443.147 236.289C443.147 231.808 439.514 228.175 435.033 228.175C430.552 228.175 426.919 231.808 426.919 236.289C426.919 240.771 430.552 244.404 435.033 244.404Z" fill="#FBB03B"/>
<path d="M207.967 255.238C218.432 255.238 226.915 246.754 226.915 236.29C226.915 225.825 218.432 217.341 207.967 217.341C197.503 217.341 189.02 225.825 189.02 236.29C189.02 246.754 197.503 255.238 207.967 255.238Z" stroke="#FBB03B" stroke-width="3.85888" stroke-miterlimit="10"/>
<path d="M207.967 244.404C212.448 244.404 216.081 240.771 216.081 236.289C216.081 231.808 212.448 228.175 207.967 228.175C203.486 228.175 199.853 231.808 199.853 236.289C199.853 240.771 203.486 244.404 207.967 244.404Z" fill="#FBB03B"/>
<path d="M355.112 199.611C355.112 199.611 365.809 226.091 370.387 230.545C374.965 234.999 385.992 236.291 385.992 236.291C367.463 250.425 344.804 258.08 321.499 258.08C298.195 258.08 275.535 250.424 257.006 236.289" stroke="#FBB03B" stroke-width="4" stroke-miterlimit="10"/>
<path d="M287.887 199.611C287.887 199.611 277.19 226.091 272.612 230.545C268.034 234.999 257.006 236.291 257.006 236.291C275.536 250.425 298.195 258.08 321.5 258.08C344.804 258.08 367.463 250.424 385.992 236.289" stroke="#FBB03B" stroke-width="4" stroke-miterlimit="10"/>
<path d="M435.033 236.29L385.992 236.291" stroke="#FBB03B" stroke-width="4" stroke-miterlimit="10"/>
<path d="M257.008 236.29L207.967 236.291" stroke="#FBB03B" stroke-width="4" stroke-miterlimit="10"/>
<path d="M321.5 14.1631V90.807" stroke="#FBB03B" stroke-width="6" stroke-miterlimit="10"/>
<path d="M435.033 83.6586C445.497 83.6586 453.981 75.1752 453.981 64.7104C453.981 54.2456 445.497 45.7622 435.033 45.7622C424.568 45.7622 416.085 54.2456 416.085 64.7104C416.085 75.1752 424.568 83.6586 435.033 83.6586Z" stroke="#FBB03B" stroke-width="3.85888" stroke-miterlimit="10"/>
<path d="M435.033 72.8245C439.514 72.8245 443.147 69.1917 443.147 64.7104C443.147 60.229 439.514 56.5962 435.033 56.5962C430.552 56.5962 426.919 60.229 426.919 64.7104C426.919 69.1917 430.552 72.8245 435.033 72.8245Z" fill="#FBB03B"/>
<path d="M207.967 83.6586C218.432 83.6586 226.915 75.1752 226.915 64.7104C226.915 54.2456 218.432 45.7622 207.967 45.7622C197.503 45.7622 189.02 54.2456 189.02 64.7104C189.02 75.1752 197.503 83.6586 207.967 83.6586Z" stroke="#FBB03B" stroke-width="3.85888" stroke-miterlimit="10"/>
<path d="M207.967 72.8245C212.448 72.8245 216.081 69.1917 216.081 64.7104C216.081 60.229 212.448 56.5962 207.967 56.5962C203.486 56.5962 199.853 60.229 199.853 64.7104C199.853 69.1917 203.486 72.8245 207.967 72.8245Z" fill="#FBB03B"/>
<path d="M355.112 101.388C355.112 101.388 365.809 74.9086 370.387 70.4545C374.965 66.0003 385.992 64.7091 385.992 64.7091C367.463 50.5749 344.804 42.9192 321.499 42.9194C298.195 42.9196 275.535 50.5757 257.006 64.7102" stroke="#FBB03B" stroke-width="4" stroke-miterlimit="10"/>
<path d="M287.887 101.388C287.887 101.388 277.19 74.9086 272.612 70.4545C268.034 66.0003 257.006 64.7091 257.006 64.7091C275.536 50.5749 298.195 42.9192 321.5 42.9194C344.804 42.9196 367.463 50.5757 385.992 64.7102" stroke="#FBB03B" stroke-width="4" stroke-miterlimit="10"/>
<path d="M435.033 64.7105L385.992 64.7095" stroke="#FBB03B" stroke-width="4" stroke-miterlimit="10"/>
<path d="M257.008 64.7105L207.967 64.7095" stroke="#FBB03B" stroke-width="4" stroke-miterlimit="10"/>
<path d="M299.992 140.367L291.18 168H283.023L295.656 133.875H300.812L299.992 140.367ZM307.305 168L298.469 140.367L297.555 133.875H302.781L315.461 168H307.305ZM306.93 155.297V161.203H289.141V155.297H306.93ZM331.75 156.141H323.172V150.211H331.75C333.016 150.211 334.031 150 334.797 149.578C335.578 149.156 336.148 148.578 336.508 147.844C336.883 147.094 337.07 146.25 337.07 145.312C337.07 144.344 336.883 143.445 336.508 142.617C336.148 141.773 335.578 141.094 334.797 140.578C334.031 140.062 333.016 139.805 331.75 139.805H325.938V168H318.297V133.875H331.75C334.469 133.875 336.797 134.367 338.734 135.352C340.688 136.336 342.18 137.688 343.211 139.406C344.258 141.109 344.781 143.062 344.781 145.266C344.781 147.469 344.258 149.383 343.211 151.008C342.18 152.633 340.688 153.898 338.734 154.805C336.797 155.695 334.469 156.141 331.75 156.141ZM357.555 133.875V168H349.938V133.875H357.555Z" fill="#FF9933"/>
</svg>
